# xmcd
#
# Track frame offsets:
#	150
#	25456
#	60458
#	88107
#	111452
#	145518
#	181739
#	228365
#	256081
#
# Disc length: 3730 seconds
#
# Revision: 0
# Processed by: cddbd v1.5.2PL0 Copyright (c) Steve Scherf et al.
# Submitted via: audiograbber 1.83.01
#
DISCID=6f0e9009
DTITLE=Grateful Dead - 93-06-21 Deer Creek Music Centre, Noblesville IN
DYEAR=1900
DGENRE=
TTITLE0=Jack Straw
TTITLE1=Friend Of The Devil
TTITLE2=Spoonful
TTITLE3=Jack-A-Roe
TTITLE4=Black Throated Wind
TTITLE5=Loose Lucy
TTITLE6=Eternity
TTITLE7=So Many Roads
TTITLE8=Promised Land
EXTD=
EXTT0=
EXTT1=
EXTT2=
EXTT3=
EXTT4=
EXTT5=
EXTT6=
EXTT7=
EXTT8=
PLAYORDER=
